 <svg width="48" height="48" viewBox="0 0 48 48" fill="none" xmlns="http://www.w3.org/2000/svg">
                <path d="M30.4166 23.4166H18.9914L24.4124 17.9958C24.6425 17.7703 24.6462 17.401 24.4207 17.171C24.1952 16.9409 23.8259 16.9371 23.5959 17.1626C23.5931 17.1653 23.5903 17.1681 23.5875 17.171L17.1709 23.5876C16.943 23.8152 16.9426 24.1842 17.1702 24.4121C17.1699 24.4121 17.1704 24.4123 17.1702 24.4121L23.5875 30.8291C23.8176 31.0545 24.1869 31.0508 24.4123 30.8208C24.6346 30.594 24.6346 30.231 24.4123 30.0042L18.9914 24.5833H30.4166C30.7388 24.5833 31 24.3221 31 24C31 23.6778 30.7388 23.4166 30.4166 23.4166Z" fill="#021626"/>
              </svg>