<svg width="160" height="160" viewBox="0 0 160 160" fill="none" xmlns="http://www.w3.org/2000/svg">
<rect width="160" height="160"/>
<g id="Brand">
<path d="M-96 -174C-96 -175.105 -95.1046 -176 -94 -176H1161C1162.1 -176 1163 -175.105 1163 -174V770C1163 771.105 1162.1 772 1161 772H-94C-95.1045 772 -96 771.105 -96 770V-174Z" fill="#FAFDFE"/>
<path d="M-94 -175H1161V-177H-94V-175ZM1162 -174V770H1164V-174H1162ZM1161 771H-94V773H1161V771ZM-95 770V-174H-97V770H-95ZM-94 771C-94.5523 771 -95 770.552 -95 770H-97C-97 771.657 -95.6568 773 -94 773V771ZM1162 770C1162 770.552 1161.55 771 1161 771V773C1162.66 773 1164 771.657 1164 770H1162ZM1161 -175C1161.55 -175 1162 -174.552 1162 -174H1164C1164 -175.657 1162.66 -177 1161 -177V-175ZM-94 -177C-95.6569 -177 -97 -175.657 -97 -174H-95C-95 -174.552 -94.5523 -175 -94 -175V-177Z" fill="white" fill-opacity="0.1"/>
<g id="Frame 8">
<g id="Logo">
<rect x="-15.5" y="-15.5" width="844.31" height="375" rx="4.5" />
<rect x="-15.5" y="-15.5" width="844.31" height="375" rx="4.5"/>
<g id="Type=Brandmark, Colour=Brand">
<g id="Vector">
<path fill-rule="evenodd" clip-rule="evenodd" d="M160 80C160 124.183 124.183 160 80 160C35.8172 160 0 124.183 0 80C0 35.8172 35.8172 0 80 0C124.183 0 160 35.8172 160 80ZM154 80C154 120.869 120.869 154 80 154C39.1309 154 6 120.869 6 80C6 39.1309 39.1309 6 80 6C120.869 6 154 39.1309 154 80Z" fill="#0D71C9"/>
<path d="M99.9784 67.1948C90.972 67.1948 84.5433 73.2577 84.5433 73.2577L84.5201 63.8179V57.8701C87.746 60.8402 92.585 63.7796 99.1372 63.7796C120.391 63.7796 120.878 50.2108 120.368 45.3298C120.291 44.5853 119.458 44.1862 118.825 44.5853C116.656 45.9591 111.37 48.2768 100.364 48.2768C91.4119 48.2768 84.4969 45.5907 81.3868 44.1249C80.5533 43.7258 79.5886 44.3321 79.5886 45.253V50.9322C75.6989 47.118 69.5017 44.6928 60.9815 44.6928C43.2619 44.6928 36.208 56.458 36.208 67.3636C36.208 72.2447 40.1903 76.2048 45.091 76.2048C49.9993 76.2048 53.9816 72.2447 53.9816 67.3636C53.9816 63.4726 51.4502 60.1648 47.9387 58.9906L47.9465 58.9829C47.9465 58.9829 50.2077 50.8325 59.2141 50.8325C67.0321 50.8325 71.6857 65.8671 54.792 79.029C35.9688 93.7029 35.7218 108.262 36.0691 112.283C36.1231 112.905 36.6325 113.373 37.2499 113.373C38.3689 113.373 39.4417 112.997 40.306 112.306C41.2862 111.531 43.0767 110.618 46.102 110.618C58.0565 110.618 62.9417 114.578 70.6053 114.578C76.5864 114.578 80.0902 111.846 82.0196 109.444C86.5035 113.818 93.1792 115 100.025 115C109.579 115 123 109.175 123 89.6507C123.015 70.1265 108.985 67.1948 99.9784 67.1948ZM95.672 107.855C90.3314 107.855 88.1011 104.616 87.175 101.838C91.9599 101.347 95.672 97.64 95.672 93.1503C95.672 88.323 91.381 84.4013 86.0868 84.4013C80.7925 84.4013 76.5015 88.3153 76.5015 93.1503C76.5015 95.5602 76.7022 97.7091 77.0803 99.6354C75.9845 100.349 74.6107 100.81 72.9128 100.81C65.2647 100.81 64.2151 96.8188 56.7445 96.8188C49.2816 96.8188 45.5849 99.7735 45.5849 99.7735C45.5849 95.3606 54.3057 90.5486 67.1941 85.3453C70.1499 84.1557 72.6196 82.7819 74.6802 81.3007C74.6802 81.3007 74.796 81.2163 75.0043 81.0551C75.2513 80.8633 75.6372 80.5716 76.1311 80.1879C76.1465 80.1726 76.1542 80.1649 76.1774 80.1495C77.1112 79.4204 78.4309 78.3767 79.9667 77.1257L83.5245 80.9477C83.8255 81.1779 84.25 81.1242 84.4738 80.8172C85.5543 79.2977 89.004 75.2761 95.1318 75.2761C102.695 75.2761 105.103 85.7597 105.103 92.6745C105.103 99.5893 102.132 107.855 95.672 107.855Z" fill="#0D71C9"/>
</g>
</g>
</g>
</g>
</g>
</svg>